<svg width="512" height="512" viewBox="0 0 512 512" fill="none" xmlns="http://www.w3.org/2000/svg" role="img" aria-label="VicPods icon light">
  <defs>
    <linearGradient id="vpPrimary" x1="116" y1="92" x2="396" y2="420" gradientUnits="userSpaceOnUse">
      <stop stop-color="#3B82F6"/>
      <stop offset="1" stop-color="#6366F1"/>
    </linearGradient>
    <linearGradient id="vpBg" x1="94" y1="72" x2="430" y2="440" gradientUnits="userSpaceOnUse">
      <stop stop-color="#EEF4FF"/>
      <stop offset="1" stop-color="#E8E9FF"/>
    </linearGradient>
  </defs>

  <rect x="72" y="72" width="368" height="368" rx="96" fill="url(#vpBg)"/>
  <rect x="72" y="72" width="368" height="368" rx="96" stroke="#D7E3FF" stroke-width="2"/>

  <rect x="172" y="118" width="168" height="224" rx="84" stroke="url(#vpPrimary)" stroke-width="24"/>
  <path d="M256 344V398" stroke="url(#vpPrimary)" stroke-width="18" stroke-linecap="round"/>
  <path d="M196 398C196 431.137 222.863 458 256 458C289.137 458 316 431.137 316 398" stroke="url(#vpPrimary)" stroke-width="18" stroke-linecap="round"/>

  <path d="M208 222L256 304L304 222" stroke="#0B1220" stroke-width="20" stroke-linecap="round" stroke-linejoin="round"/>
  <path d="M194 264L218 246L242 264L266 246L290 264L318 244" stroke="#0B1220" stroke-width="10" stroke-linecap="round" stroke-linejoin="round"/>
</svg>
